# xmcd CD database file
#
# Track frame offsets:
#	150
#	14702
#	37466
#	57358
#	76692
#	93660
#	114003
#	128927
#	147181
#	163985
#
# Disc length: 2372 seconds
#
# Revision: 0
# Processed by: cddbd v1.5.1PL0 Copyright (c) Steve Scherf et al.
# Submitted via: CDex 1.40Release
#
DISCID=8a09420a
DTITLE=John Nemeth and the Jacks - the jack of harps
DYEAR=2002
DGENRE=Blues
TTITLE0=Mother In Law Blues
TTITLE1=Nothin's Too Good For My Baby
TTITLE2=Late Night Hour
TTITLE3=Love Zombie
TTITLE4=Up To No Good
TTITLE5=Wake Up Baby
TTITLE6=Time Won't Wait
TTITLE7=Fetch That Wood
TTITLE8=Every Night 'Bout This Time
TTITLE9=Grizzly Bear
EXTD=YEAR: 2002 ID3G: 0
EXTT0=
EXTT1=
EXTT2=
EXTT3=
EXTT4=
EXTT5=
EXTT6=
EXTT7=
EXTT8=
EXTT9=
PLAYORDER=
